<?xml version="1.0" encoding="iso-8859-1"?>
<!-- Generator: Adobe Illustrator 19.0.0, SVG Export Plug-In . SVG Version: 6.00 Build 0)  -->
<svg version="1.1" id="Capa_1" xmlns="http://www.w3.org/2000/svg" xmlns:xlink="http://www.w3.org/1999/xlink" x="0px" y="0px"
	 viewBox="0 0 416 416" style="enable-background:new 0 0 416 416;" xml:space="preserve">
<g>
	<g>
		<path d="M192,48H0v304c0,8.832,7.168,16,16,16c8.832,0,16-7.168,16-16V80h160c35.296,0,64,28.704,64,64v208
			c0,8.832,7.168,16,16,16c8.832,0,16-7.168,16-16V144C288,91.072,244.928,48,192,48z"/>
	</g>
</g>
<g>
	<g>
		<path d="M144,144c-8.832,0-16,7.168-16,16v192c0,8.832,7.168,16,16,16c8.832,0,16-7.168,16-16V160
			C160,151.168,152.832,144,144,144z"/>
	</g>
</g>
<g>
	<g>
		<path d="M400,48c-8.832,0-16,7.168-16,16v288c0,8.832,7.168,16,16,16c8.832,0,16-7.168,16-16V64C416,55.168,408.832,48,400,48z"/>
	</g>
</g>
<g>
</g>
<g>
</g>
<g>
</g>
<g>
</g>
<g>
</g>
<g>
</g>
<g>
</g>
<g>
</g>
<g>
</g>
<g>
</g>
<g>
</g>
<g>
</g>
<g>
</g>
<g>
</g>
<g>
</g>
</svg>
